<svg xmlns="http://www.w3.org/2000/svg" viewBox="0 0 881.16 159.66"><defs><style>.a{fill:#85c55a;}.b{fill:#414b21;}.c{fill:#f99c3a;}.d{fill:#d62128;}.e{fill:#549341;}.f{fill:#212121;}</style></defs><path class="a" d="M146.67,93.54c0,37.48-30.58,66.12-68.06,66.12S10.75,131,10.75,93.54Z"/><path class="b" d="M146.67,90.23a6.82,6.82,0,0,0-4.57-5.61.36.36,0,0,1-.19-.57c1.93-2.45,10.77-15.1-2.37-25.74a.35.35,0,0,1-.12-.38,12.49,12.49,0,0,0-5.21-14.58c-8.52-5.84-18.69.27-20.1,7.54a.36.36,0,0,1-.45.28c-2-.59-11.13-2.83-18,5.1C89,64,90.05,75,90.37,77.4a.35.35,0,0,1-.4.4c-2.38-.33-13-1-15.16,12.4Z"/><path class="c" d="M94.16,26.25,97.74,50a.41.41,0,0,1-.18.39C86.28,57.71,86.67,71.65,86.83,74.1a.39.39,0,0,1-.36.41,16.09,16.09,0,0,0-10,4.95.39.39,0,0,1-.66-.15c-1-3.14-6.21-16.61-21.28-21.87a.37.37,0,0,1-.25-.3L50,33.64a2.86,2.86,0,0,1,2.33-3.32l38.53-6.45A2.84,2.84,0,0,1,94.16,26.25Z"/><path class="b" d="M62,25.35l17.71-3a2.56,2.56,0,0,0,2.14-2.72l-1-14.11A2,2,0,0,0,79.49,3.8h0a2,2,0,0,0-2.4.88l-1.4,2.4A.37.37,0,0,1,75,6.92l-.43-5.25A1.82,1.82,0,0,0,73.39.11h0a1.8,1.8,0,0,0-2.12.68L65.14,9.73a.37.37,0,0,1-.38.15L56.86,8A3.37,3.37,0,0,0,53.1,9.68h0a3.39,3.39,0,0,0,0,3.24l6.16,11.14A2.58,2.58,0,0,0,62,25.35Z"/><path class="b" d="M14,70.66a39,39,0,0,1,9.92-9.93.38.38,0,0,0,.1-.56L14.28,47.11a2.24,2.24,0,0,0-2.17-.86h0a2.22,2.22,0,0,0-1.84,2.06l-.5,8.14a.42.42,0,0,1-.27.36L1.7,59.6A2.55,2.55,0,0,0,0,61.77H0a2.57,2.57,0,0,0,1.34,2.5l12.13,6.52A.39.39,0,0,0,14,70.66Z"/><path class="d" d="M10.75,90.33l61.09-.13s.23-4.06,1.92-6.65a.39.39,0,0,0,0-.28c-.4-1.81-4.64-19.09-22.92-23.78C31.6,54.54,10.75,68.71,10.75,90.33Z"/><path class="e" d="M215,135.31c-4.79,3.84-12,5.76-19.17,5.76-18.7,0-29.41-9.91-29.41-28.77V35.75h20V55.24h22.85v16H186.4v40.59c0,8.31,4.31,12.79,11.82,12.79a18,18,0,0,0,11.19-3.52Z"/><path class="e" d="M300.83,54.61V140h-19v-11c-6.71,8.15-16.62,12.15-28.29,12.15-24.93,0-43.15-17.26-43.15-43.79s18.22-43.63,43.15-43.63c10.87,0,20.46,3.67,27.33,11.34V54.61ZM281.17,97.28c0-16.3-10.86-26.69-25.41-26.69-14.38,0-25.25,10.39-25.25,26.69S241.38,124,255.76,124C270.31,124,281.17,113.58,281.17,97.28Z"/><path class="e" d="M306.11,131.48l7.67-15.18c7.51,5,19,8.47,29.73,8.47,12.62,0,17.9-3.52,17.9-9.43,0-16.3-52.74-1-52.74-35,0-16.15,14.54-26.69,37.55-26.69,11.35,0,24.3,2.71,32,7.35l-7.67,15.18a46.78,46.78,0,0,0-24.46-6.39c-12.14,0-17.9,4-17.9,9.59,0,17.26,52.74,1.92,52.74,35.32,0,16-14.7,26.37-38.67,26.37C328,141.07,313.78,136.91,306.11,131.48Z"/><path class="e" d="M434.93,135.31c-4.8,3.84-12,5.76-19.18,5.76-18.7,0-29.41-9.91-29.41-28.77V35.75h20V55.24h22.85v16H406.32v40.59c0,8.31,4.31,12.79,11.83,12.79a17.93,17.93,0,0,0,11.18-3.52Z"/><path class="e" d="M501.1,114.86l10.54,12.3c-7.51,9.11-19.49,13.91-34.2,13.91-28.61,0-47.14-18.38-47.14-43.79s18.53-43.63,43.95-43.63c23.81,0,43,16,43.15,42.67L452,109.1c4.16,9.75,13.43,15,25.89,15C487.51,124.13,494.86,121.09,501.1,114.86Zm-51.47-18.7v.16l48.27-9.27c-2.72-10.39-11.67-17.42-23.65-17.42C459.7,69.63,449.63,79.86,449.63,96.16Z"/><path class="f" d="M614.89,97.28c0,26.53-18.38,43.79-43.31,43.79-11.67,0-21.58-4-28.29-12.15v11h-19V21.36h20V65c6.87-7.67,16.46-11.34,27.33-11.34C596.51,53.65,614.89,70.75,614.89,97.28Zm-20.3,0c0-16.3-10.86-26.69-25.25-26.69S543.93,81,543.93,97.28,555,124,569.34,124,594.59,113.58,594.59,97.28Z"/><path class="f" d="M710.15,54.61V140h-19v-11c-6.71,8.15-16.62,12.15-28.29,12.15-24.93,0-43.15-17.26-43.15-43.79s18.22-43.63,43.15-43.63c10.87,0,20.46,3.67,27.33,11.34V54.61ZM690.49,97.28c0-16.3-10.87-26.69-25.41-26.69S639.83,81,639.83,97.28,650.69,124,665.08,124,690.49,113.58,690.49,97.28Z"/><path class="f" d="M715.42,131.48l7.67-15.18c7.52,5,19,8.47,29.73,8.47,12.63,0,17.9-3.52,17.9-9.43,0-16.3-52.74-1-52.74-35,0-16.15,14.54-26.69,37.56-26.69,11.35,0,24.29,2.71,32,7.35l-7.67,15.18a46.75,46.75,0,0,0-24.45-6.39c-12.15,0-17.9,4-17.9,9.59,0,17.26,52.74,1.92,52.74,35.32,0,16-14.7,26.37-38.68,26.37C737.32,141.07,723.09,136.91,715.42,131.48Z"/><path class="f" d="M864.86,114.86l10.55,12.3c-7.51,9.11-19.5,13.91-34.2,13.91-28.61,0-47.15-18.38-47.15-43.79s18.54-43.63,44-43.63c23.81,0,43,16,43.15,42.67L815.79,109.1c4.16,9.75,13.43,15,25.89,15C851.27,124.13,858.63,121.09,864.86,114.86ZM813.4,96.16v.16l48.26-9.27C859,76.66,850,69.63,838,69.63,823.47,69.63,813.4,79.86,813.4,96.16Z"/></svg>