<svg id="Layer_1" data-name="Layer 1" xmlns="http://www.w3.org/2000/svg" viewBox="0 0 200 200"><defs><style>.cls-1{fill:#3d3d3c;}</style></defs><path class="cls-1" d="M126.82,84.26l0-.13,0-.12-10.27-35.2a8.17,8.17,0,0,0-.4-1.21,6.84,6.84,0,0,0-2.55-13.18H86.4A6.84,6.84,0,0,0,83.86,47.6a8.57,8.57,0,0,0-.4,1.21L73.19,84l0,.12,0,.13a77.66,77.66,0,0,0-1.66,20.86v40.66a19.82,19.82,0,0,0,19.8,19.8h17.4a19.83,19.83,0,0,0,19.8-19.8V107c0-.58,0-1.22.05-1.88A75.07,75.07,0,0,0,126.82,84.26Zm-2.92,22.66v38.86A15.23,15.23,0,0,1,108.67,161H91.27A15.23,15.23,0,0,1,76,145.78V105.52c-.05-2.21-.13-4.62-.06-7.28l.4.13c.43.14,3.17.89,3.26.91a29.07,29.07,0,0,0,10.08.41c7.78-1.38,14.58-5.76,21.51-9.23A20.9,20.9,0,0,1,120.77,88a21.22,21.22,0,0,1,2.22.31C124.46,96.41,124,102.51,123.9,106.92Z"/></svg>