<svg id="Layer_1" data-name="Layer 1" xmlns="http://www.w3.org/2000/svg" viewBox="0 0 200 200"><defs><style>.cls-1,.cls-2{fill:#3d3d3c;}.cls-1{fill-rule:evenodd;}</style></defs><path class="cls-1" d="M130.38,48.36C120.77,37.19,110.27,31.28,100,31.28S79.22,37.19,69.62,48.36c-16.37,19-25.88,48.5-22.62,70.07,5.62,37.08,31.06,50.29,53,50.29s47.38-13.21,53-50.3C156.26,96.86,146.75,67.39,130.38,48.36Zm17.1,69.23c-5,33.29-27.3,45.54-47.48,45.54s-42.43-12.25-47.48-45.54C47.58,85,74.23,36.87,100,36.87S152.42,85,147.48,117.59Z"/><path class="cls-2" d="M127.74,115.27A27.74,27.74,0,1,1,100,87.53,27.74,27.74,0,0,1,127.74,115.27Z"/></svg>