<svg id="Layer_1" data-name="Layer 1" xmlns="http://www.w3.org/2000/svg" viewBox="0 0 200 200"><defs><style>.cls-1{fill:#3d3d3c;}</style></defs><path class="cls-1" d="M135.71,86.82a34.55,34.55,0,0,0-34.28,30.27V91.83a34.55,34.55,0,0,0,34.28-34.55,34.56,34.56,0,0,0-34.28,30.28V78A34.54,34.54,0,0,0,100,30.62,34.55,34.55,0,0,0,98.57,78v9.6A34.56,34.56,0,0,0,64.29,57.28,34.55,34.55,0,0,0,98.57,91.83V117.1A34.55,34.55,0,0,0,64.29,86.82a34.54,34.54,0,0,0,34.28,34.54v25.27a34.56,34.56,0,0,0-34.28-30.28h0A34.55,34.55,0,0,0,98.57,150.9v16c0,1.59.64,2.52,1.43,2.52s1.43-.93,1.43-2.52v-16a34.55,34.55,0,0,0,34.28-34.55h0a34.56,34.56,0,0,0-34.28,30.28V121.36A34.54,34.54,0,0,0,135.71,86.82Z"/></svg>