<svg id="Layer_1" data-name="Layer 1" xmlns="http://www.w3.org/2000/svg" viewBox="0 0 200 200"><defs><style>.cls-1{fill:#3d3d3c;}</style></defs><path class="cls-1" d="M163.45,81.62l-1.6-.6-21.28,26.7a1.83,1.83,0,0,1-1.47.73,1.78,1.78,0,0,1-1.09-.36,1.82,1.82,0,0,1-.37-2.55L160,77.36l.15-3.53a16.56,16.56,0,0,0-14.9-17.21l-5.34-.53-14.77,39a1.83,1.83,0,0,1-1.72,1.23,1.84,1.84,0,0,1-1.71-2.51l15-39.6.72-1.7a16.58,16.58,0,0,0-19.68-9.67l-1.57.43-6.4,46.49A1.84,1.84,0,0,1,108,91.39l-.24,0a1.85,1.85,0,0,1-1.58-2.07l6.4-46.47-.08-.48-2.68-2a16.56,16.56,0,0,0-19.6,0l-2.67,2-.09.51,6.09,45.26A1.85,1.85,0,0,1,92,90.18l-.24,0a1.84,1.84,0,0,1-1.81-1.62l-6.1-45.3-1.57-.43a16.59,16.59,0,0,0-20,10.44l1,1.92L79,96.06a1.83,1.83,0,0,1-1.08,2.35,2,2,0,0,1-.63.11,1.84,1.84,0,0,1-1.72-1.2L59.85,56.56l-.27-.43-4.85.49a16.56,16.56,0,0,0-14.9,17.21L40,77l23.42,29.77a1.82,1.82,0,0,1-.38,2.55,1.77,1.77,0,0,1-1.09.37,1.83,1.83,0,0,1-1.46-.74l-22.07-28-1.83.69a18,18,0,0,0-4.79,31.05l39.41,31-1.26,3.8a11.71,11.71,0,0,0,.38,8.84,11.39,11.39,0,0,0,11.37,6.43l18.34.06,18.34-.06a11.39,11.39,0,0,0,11.37-6.43,11.71,11.71,0,0,0,.38-8.84l-1.26-3.8,39.41-31a18,18,0,0,0-4.79-31Z"/></svg>