<svg id="Layer_1" data-name="Layer 1" xmlns="http://www.w3.org/2000/svg" viewBox="0 0 200 200"><defs><style>.cls-1{fill:#3d3d3c;}</style></defs><path class="cls-1" d="M135.7,116.79h0c-.39-1-.82-2-1.29-2.92-2-4.83-5.7-14.83-5.7-23.64,0-9.36.89-20.89,1.3-25.69.07-.54.18-2.27.18-2.27,0-.4,0-.81,0-1.22a30.22,30.22,0,0,0-60.44,0,72.82,72.82,0,0,0,1.55,9.57,88,88,0,0,1,1.8,20.64c-.39,5.89-4.74,16.41-7.17,21.88a38.73,38.73,0,0,0-1.62,3.53h0a38.35,38.35,0,1,0,71.36.11ZM81,119.9c1.81-.84,4.25.61,5.45,3.22s.72,5.41-1.08,6.25-4.25-.62-5.46-3.23S79.19,120.73,81,119.9Zm7.5,32.88c-3,1.39-7.12-1-9.14-5.42s-1.2-9.07,1.83-10.47,7.12,1,9.14,5.42S91.52,151.38,88.49,152.78Zm9.39-13.63c-2,.92-4.69-.68-6-3.57s-.79-6,1.2-6.89,4.69.68,6,3.57S99.87,138.23,97.88,139.15Z"/></svg>