<svg id="Layer_1" data-name="Layer 1" xmlns="http://www.w3.org/2000/svg" viewBox="0 0 200 200"><defs><style>.cls-1{fill:#3d3d3c;}</style></defs><path class="cls-1" d="M164.92,108.87a3.27,3.27,0,0,0-1.1-.47A62.83,62.83,0,0,0,144,107a30.83,30.83,0,0,0-7.74,1.49,18.59,18.59,0,0,0-2.82,1.33c-1.34.73-1.9,2.07-2.56,3.31a67.42,67.42,0,0,0-3.33,8.52c-1.13,3.09-2.24,6.19-3.55,9.2-2.39,5.49-6.63,9.18-12.21,11.46A17.55,17.55,0,0,1,93,139.16a10.18,10.18,0,0,0-1.92-1c-.32-.18-.34-.39-.09-.64a11.48,11.48,0,0,0,2.66-5.31,1.81,1.81,0,0,1,1.49-1.28,9.86,9.86,0,0,1,4.58.18c.24.05.72,0,.74-.05.11-.43-.33-.42-.58-.51a9.61,9.61,0,0,0-4.87-.45,3.17,3.17,0,0,0-2.47,1.82,12.56,12.56,0,0,1-3,4.34c-.35.29-.56.31-.9,0-1.16-1-1.19-1-.27-2.12,1.11-1.4,2.5-5.69,2.65-6.18a1.44,1.44,0,0,1,1.34-1.09c1.42,0,2.84-.09,4.26,0s3,.23,4.56.31c.41,0,1,.19,1.09-.43s-.58-.52-1-.58a42.16,42.16,0,0,0-7.93-.72c-2.59.05-3.75.83-4.58,3.24a12.53,12.53,0,0,1-2.42,4.32l-.41.46a3.45,3.45,0,0,1-.12-.38,5.15,5.15,0,0,0-1.38-2.76c-.11-.12-.19-.44-.11-.52a22,22,0,0,0,3-4.92,12.7,12.7,0,0,1,1.23-1.94,3.44,3.44,0,0,1,2.61-1.21,21.81,21.81,0,0,1,5.17.33,17.1,17.1,0,0,0,1.74.18c.15,0,.3-.14.45-.22-.11-.12-.21-.31-.35-.34a21.33,21.33,0,0,0-7.85-1.08,5.44,5.44,0,0,0-4.22,2.94c-.94,1.58-1.81,3.19-2.72,4.78-.35.62-.35.61-.93.2l-1.87-1.33c-.23-.16-.33-.29-.14-.57,1.63-2.33,3.27-4.66,4.84-7a4,4,0,0,1,2.53-1.66,17.6,17.6,0,0,1,5.27-.27c1.87.1,8.26.4,9.59.35a2.15,2.15,0,0,0,.44-.09s0-.11.05-.16a3,3,0,0,0-.56-.18c-1.08-.1-2.16-.17-3.23-.27-2.73-.25-5.46-.53-8.19-.76a17.66,17.66,0,0,0-2.52,0A6.9,6.9,0,0,0,83,119.63c-1.3,1.86-2.75,3.63-4.11,5.45-.3.41-.54.5-.92.1s-.86-.81-1.29-1.22c-.21-.2-.24-.38,0-.59,2.37-2,4-4.69,5.74-7.17.55-.76,1.07-1.56,1.63-2.32A3.66,3.66,0,0,1,88,112.4c2,.41,4,.93,6,1.4.48.11,1,.18,1.46.28.1-.59-.32-.66-.63-.75-2.23-.67-4.46-1.35-6.71-1.93a6.63,6.63,0,0,0-2.18-.09,4.1,4.1,0,0,0-2.68,1.26c-1.29,1.36-6,6.66-7,7.91-.23.26-.51.48-.79.74-.28-.67-.55-1.27-.78-1.89,0-.11.09-.33.2-.41,2.78-2.14,4.89-4.91,7.3-7.4a49.61,49.61,0,0,1,3.66-3.44,4.32,4.32,0,0,1,3.89-1c1.46.36,2.92.72,4.37,1.1.55.14,1.1.31,1.64.47l.12-.17a2.13,2.13,0,0,0-.42-.38,21.44,21.44,0,0,0-6.53-2.06,6.26,6.26,0,0,0-4.45,1.38c-2.25,1.5-9.13,8.13-10.7,9.53-.6.54-.77.48-1-.3a.36.36,0,0,0,0-.1c-.32-1-.25-1,.57-1.65,1.41-1.19,7.7-7.81,9.52-9.83a7,7,0,0,1,8-2c1.45.46,2.94.79,4.42,1.15.17.05.38-.08.58-.13a2,2,0,0,0-.44-.35c-1.9-.68-3.77-1.46-5.71-2a7.66,7.66,0,0,0-7.8,1.85c-2.08,2-8.23,8.34-9.31,9.36a4.62,4.62,0,0,1-.57.4c0-1.2,0-2.23,0-3.25a3.46,3.46,0,0,1,1.14-2.61,19.84,19.84,0,0,0,4.45-8.27A15.93,15.93,0,0,1,83.15,91a44.75,44.75,0,0,0,9.9-9.91,22.4,22.4,0,0,1,10-7.75c2.81-1.19,17.38-7,21.45-9.48a61.28,61.28,0,0,0,5.08-3.49c-.23-.05-.51-.2-.69-.13-1,.4-2,.81-3,1.31-4.86,2.53-16.35,7.24-17,7.47-2.5.82-5,1.7-7.48,2.49-1,.33-2.14.48-3.21.71a6.47,6.47,0,0,1-.7,0c.67-.62,1.22-1.17,1.81-1.68.36-.3.81-.5,1.18-.79.16-.12.22-.35.33-.53a2,2,0,0,0-.6,0c-.78.29-1.55.62-2.33.92a4.26,4.26,0,0,1-.64.13L97,70.18a25.51,25.51,0,0,1,3.53-2.88c1.07-.61,2.21-1.13,3.31-1.7a4.62,4.62,0,0,0,.5-.37,1.18,1.18,0,0,0-.07-.2L98,66.12,98,66c.15-.07,9.45-3.75,14.06-5.22a119.08,119.08,0,0,0,11.29-4.59c1.79-.78,3.62-1.45,5.39-2.26,2.34-1.06,4.67-2.18,7-3.34,1.51-.77,3-1.65,4.45-2.49a2.74,2.74,0,0,0,.36-.32l-.05-.17a4.49,4.49,0,0,0-.83.09c-.68.22-1.36.45-2,.72-3.5,1.4-28.94,11.1-32.24,12.11-2.84.87-9,2.25-9.13,2.18l.83-.31,14.52-5.1c4.26-1.5,8.59-2.83,12.75-4.55a153.11,153.11,0,0,0,15.3-7c2.09-1.15,4.27-2.15,6.36-3.29s3.93-2.26,5.87-3.41c.15-.09.23-.29.33-.44-.19,0-.42-.17-.58-.12-.82.28-1.65.56-2.44.92-3.49,1.6-7,3.17-10.45,4.85a83.15,83.15,0,0,1-9.55,3.72c-5,1.69-10.08,3.19-15.08,4.9-5.88,2-11.91,3.51-17.89,5.2a188.66,188.66,0,0,0-21.1,7.08c-5.64,2.36-16.2,8.86-16.3,8.94-3.22,2.24-19.18,13.38-22.66,29.23-1.1,5-1.94,10-.82,15,.35,1.55.93,3,1.41,4.56C38.08,127.18,46,140,48,142.25a59.48,59.48,0,0,0,6.19,6C61.56,154.5,71.86,158.38,75,159.4a48.61,48.61,0,0,0,18.8,2,59.71,59.71,0,0,0,19-4.32,40.79,40.79,0,0,0,15.74-11.83c2.24-2.75,4.24-5.68,6.45-8.44,2.68-3.34,13-15.11,15.59-17.52a46.47,46.47,0,0,1,9.5-7.4c1.51-.82,3.11-1.48,4.67-2.2C165.31,109.45,165.39,109.2,164.92,108.87ZM75.43,73a6.18,6.18,0,0,1,4.73-1.41,3.42,3.42,0,0,1,3.21,2.56,5.19,5.19,0,0,1-1.62,5.26,4.35,4.35,0,0,1-4.76.87A4.16,4.16,0,0,1,75.43,73Z"/></svg>