<svg id="Layer_1" data-name="Layer 1" xmlns="http://www.w3.org/2000/svg" viewBox="0 0 200 200"><defs><style>.cls-1{fill:#3d3d3c;fill-rule:evenodd;}</style></defs><path class="cls-1" d="M102.27,93.83c-22.94,4.64-36.09,16.64-36.09,16.64,6.14,25.82,25.92,49.4,44.71,49.43,1.31,3.77,4.63,6.13,7.82,5.39s5.12-4.27,4.71-8.2a33.57,33.57,0,0,0,13.84-12.8,44.82,44.82,0,0,0,3.71-7.36c4.53-11.28,4.14-30.3,1.11-43.93C142.08,93,125.85,89.07,102.27,93.83Z"/><path class="cls-1" d="M63.37,107A106.66,106.66,0,0,1,142.8,89.05l.38-.79a22.18,22.18,0,0,0,1.93-14.58C141.65,58.63,122,50.52,99,54a29.25,29.25,0,0,0-8.31-18,4.6,4.6,0,0,0-6.51,6.49A20,20,0,0,1,90,55.92c-14,3.92-25.7,11.59-31.59,21-3.6,5.76-4.81,11.81-3.5,17.52A22.18,22.18,0,0,0,63,106.7Z"/></svg>