<?xml version="1.0" encoding="utf-8"?>
<!-- Generator: Adobe Illustrator 26.1.0, SVG Export Plug-In . SVG Version: 6.00 Build 0)  -->
<svg version="1.1" id="Layer_1" xmlns="http://www.w3.org/2000/svg" xmlns:xlink="http://www.w3.org/1999/xlink" x="0px" y="0px"
	 viewBox="0 0 16 16" style="enable-background:new 0 0 16 16;" xml:space="preserve">
<style type="text/css">
	.st0{fill:#F89C3A;}
	.st1{fill:#FFFFFF;}
</style>
<path class="st0" d="M2.9,14.9c-0.1,0.4,0.4,0.8,0.7,0.6L8,13.2l4.4,2.3c0.4,0.2,0.8-0.1,0.7-0.6l-0.8-4.7l3.5-3.4
	c0.3-0.3,0.2-0.9-0.3-0.9l-4.9-0.7L8.5,0.8C8.3,0.5,8,0.4,7.8,0.5C7.7,0.6,7.6,0.7,7.5,0.8L5.4,5.1L0.5,5.8C0,5.9-0.2,6.5,0.2,6.8
	l3.5,3.4L2.9,14.9L2.9,14.9z"/>
<path class="st1" d="M7.8,12.1L4.1,14l0.7-4c0-0.2,0-0.4-0.2-0.5L1.7,6.7l4.1-0.6c0.2,0,0.3-0.1,0.4-0.3L8,2.2l1.8,3.7
	c0.1,0.2,0.2,0.3,0.4,0.3l4.1,0.6l-2.9,2.8c-0.1,0.1-0.2,0.3-0.2,0.5l0.7,4l-3.7-1.9C8.1,12,7.9,12,7.8,12.1L7.8,12.1z"/>
</svg>
