<svg xmlns="http://www.w3.org/2000/svg" viewBox="0 0 455.66 495.99"><defs><style>.a{fill:#85C65A;}.b{fill:#414B20;}.c{fill:#F89C3A;}.d{fill:#D62027;}</style></defs><path class="a" d="M455.66,290.59c0,116.43-95,205.4-211.45,205.4S33.4,407,33.4,290.59Z"/><path class="b" d="M455.66,280.32s-1.29-13.41-14.21-17.44a1.12,1.12,0,0,1-.6-1.77c6-7.62,33.48-46.91-7.35-80a1.1,1.1,0,0,1-.37-1.21c1.49-4.41,8.23-28.53-16.18-45.28-26.47-18.15-58.07.85-62.47,23.43a1.08,1.08,0,0,1-1.38.87c-6.08-1.85-34.59-8.8-55.88,15.83-20.64,23.87-17.46,58.15-16.47,65.65a1.1,1.1,0,0,1-1.26,1.24c-7.37-1-40.23-3.18-47.09,38.53Z"/><path class="c" d="M292.53,81.56l11.11,73.75a1.21,1.21,0,0,1-.55,1.19c-35,22.79-33.85,66.07-33.34,73.71a1.21,1.21,0,0,1-1.13,1.27c-16.68,1.53-27.44,11.44-31.15,15.38a1.21,1.21,0,0,1-2-.46c-3.18-9.76-19.29-51.61-66.11-68a1.24,1.24,0,0,1-.8-.93l-13.12-73a8.85,8.85,0,0,1,7.24-10.29l119.68-20A8.85,8.85,0,0,1,292.53,81.56Z"/><path class="b" d="M192.48,78.75l55-9.22a8,8,0,0,0,6.65-8.44L251.1,17.25a6.23,6.23,0,0,0-4.16-5.45h0a6.25,6.25,0,0,0-7.46,2.74L235.14,22A1.13,1.13,0,0,1,233,21.5L231.68,5.18A5.64,5.64,0,0,0,228,.35h0a5.64,5.64,0,0,0-6.61,2.11l-19,27.76a1.13,1.13,0,0,1-1.2.47l-24.53-5.85A10.51,10.51,0,0,0,165,30.07h0A10.53,10.53,0,0,0,165,40.13l19.13,34.6A8,8,0,0,0,192.48,78.75Z"/><path class="b" d="M43.46,219.52a120.94,120.94,0,0,1,30.83-30.84,1.22,1.22,0,0,0,.3-1.74L44.36,146.36a6.94,6.94,0,0,0-6.75-2.68h0a6.93,6.93,0,0,0-5.72,6.4l-1.54,25.28a1.26,1.26,0,0,1-.85,1.12L5.28,185.15A8,8,0,0,0,0,191.91H0a8,8,0,0,0,4.16,7.74L41.87,219.9A1.21,1.21,0,0,0,43.46,219.52Z"/><path class="d" d="M33.4,280.63l189.78-.41s.71-12.62,5.95-20.67a1.16,1.16,0,0,0,.17-.87c-1.23-5.61-14.42-59.31-71.19-73.88C98.18,169.43,33.4,213.46,33.4,280.63Z"/></svg>